<svg width="267" height="50" viewBox="0 0 267 50" fill="none" xmlns="http://www.w3.org/2000/svg">
<path d="M3.52273 41V11.9091H7.04545V24.8636H22.5568V11.9091H26.0795V41H22.5568V27.9886H7.04545V41H3.52273ZM69.7798 11.9091V41H66.4276V11.9091H69.7798ZM75.9197 41V19.1818H79.272V41H75.9197ZM77.6243 15.5455C76.9709 15.5455 76.4074 15.3229 75.9339 14.8778C75.4699 14.4328 75.2379 13.8977 75.2379 13.2727C75.2379 12.6477 75.4699 12.1127 75.9339 11.6676C76.4074 11.2225 76.9709 11 77.6243 11C78.2777 11 78.8364 11.2225 79.3004 11.6676C79.7739 12.1127 80.0107 12.6477 80.0107 13.2727C80.0107 13.8977 79.7739 14.4328 79.3004 14.8778C78.8364 15.3229 78.2777 15.5455 77.6243 15.5455ZM93.6506 41.4545C91.8324 41.4545 90.2273 40.9953 88.8352 40.0767C87.4432 39.1487 86.3542 37.8419 85.5682 36.1562C84.7822 34.4612 84.3892 32.4583 84.3892 30.1477C84.3892 27.8561 84.7822 25.8674 85.5682 24.1818C86.3542 22.4962 87.4479 21.1941 88.8494 20.2756C90.2509 19.357 91.8703 18.8977 93.7074 18.8977C95.1278 18.8977 96.25 19.1345 97.0739 19.608C97.9072 20.072 98.5417 20.6023 98.9773 21.1989C99.4223 21.786 99.768 22.2689 100.014 22.6477H100.298V11.9091H103.651V41H100.412V37.6477H100.014C99.768 38.0455 99.4176 38.5473 98.9631 39.1534C98.5085 39.75 97.8598 40.285 97.017 40.7585C96.1742 41.2225 95.0521 41.4545 93.6506 41.4545ZM94.1051 38.4432C95.4498 38.4432 96.5862 38.0928 97.5142 37.392C98.4422 36.6818 99.1477 35.7017 99.6307 34.4517C100.114 33.1922 100.355 31.7386 100.355 30.0909C100.355 28.4621 100.118 27.0369 99.6449 25.8153C99.1714 24.5843 98.4706 23.6278 97.5426 22.946C96.6146 22.2547 95.4688 21.9091 94.1051 21.9091C92.6847 21.9091 91.5009 22.2737 90.554 23.0028C89.6165 23.7225 88.911 24.7027 88.4375 25.9432C87.9735 27.1742 87.7415 28.5568 87.7415 30.0909C87.7415 31.6439 87.9782 33.0549 88.4517 34.3239C88.9347 35.5833 89.6449 36.5871 90.5824 37.3352C91.5294 38.0739 92.7036 38.4432 94.1051 38.4432ZM116.676 41.5114C115.294 41.5114 114.039 41.2509 112.912 40.7301C111.785 40.1998 110.89 39.4375 110.227 38.4432C109.564 37.4394 109.233 36.2273 109.233 34.8068C109.233 33.5568 109.479 32.5436 109.972 31.767C110.464 30.9811 111.122 30.3655 111.946 29.9205C112.77 29.4754 113.679 29.1439 114.673 28.9261C115.677 28.6989 116.686 28.5189 117.699 28.3864C119.025 28.2159 120.099 28.0881 120.923 28.0028C121.757 27.9081 122.363 27.7519 122.741 27.5341C123.13 27.3163 123.324 26.9375 123.324 26.3977V26.2841C123.324 24.8826 122.94 23.7936 122.173 23.017C121.416 22.2405 120.265 21.8523 118.722 21.8523C117.121 21.8523 115.866 22.2027 114.957 22.9034C114.048 23.6042 113.409 24.3523 113.04 25.1477L109.858 24.0114C110.426 22.6856 111.184 21.6534 112.131 20.9148C113.087 20.1667 114.129 19.6458 115.256 19.3523C116.392 19.0492 117.509 18.8977 118.608 18.8977C119.309 18.8977 120.114 18.983 121.023 19.1534C121.941 19.3144 122.827 19.6506 123.679 20.1619C124.541 20.6733 125.256 21.4451 125.824 22.4773C126.392 23.5095 126.676 24.892 126.676 26.625V41H123.324V38.0455H123.153C122.926 38.5189 122.547 39.0256 122.017 39.5653C121.487 40.1051 120.781 40.5644 119.901 40.9432C119.02 41.322 117.945 41.5114 116.676 41.5114ZM117.188 38.5C118.513 38.5 119.631 38.2396 120.54 37.7188C121.458 37.1979 122.15 36.5256 122.614 35.7017C123.087 34.8778 123.324 34.0114 123.324 33.1023V30.0341C123.182 30.2045 122.869 30.3608 122.386 30.5028C121.913 30.6354 121.364 30.7538 120.739 30.858C120.123 30.9527 119.522 31.0379 118.935 31.1136C118.357 31.1799 117.888 31.2367 117.528 31.2841C116.657 31.3977 115.843 31.5824 115.085 31.8381C114.337 32.0843 113.731 32.4583 113.267 32.9602C112.813 33.4527 112.585 34.125 112.585 34.9773C112.585 36.142 113.016 37.0227 113.878 37.6193C114.749 38.2064 115.852 38.5 117.188 38.5ZM134.173 49.1818C133.604 49.1818 133.098 49.1345 132.653 49.0398C132.208 48.9545 131.9 48.8693 131.729 48.7841L132.582 45.8295C133.396 46.0379 134.116 46.1136 134.741 46.0568C135.366 46 135.92 45.7206 136.403 45.2188C136.895 44.7263 137.345 43.9261 137.752 42.8182L138.377 41.1136L130.309 19.1818H133.945L139.968 36.5682H140.195L146.218 19.1818H149.854L140.593 44.1818C140.176 45.3087 139.66 46.2415 139.045 46.9801C138.429 47.7282 137.714 48.2822 136.9 48.642C136.095 49.0019 135.186 49.1818 134.173 49.1818ZM196.893 41.4545C194.923 41.4545 193.195 40.9858 191.708 40.0483C190.231 39.1108 189.076 37.7992 188.242 36.1136C187.418 34.428 187.006 32.4583 187.006 30.2045C187.006 27.9318 187.418 25.9479 188.242 24.2528C189.076 22.5578 190.231 21.2415 191.708 20.304C193.195 19.3665 194.923 18.8977 196.893 18.8977C198.862 18.8977 200.586 19.3665 202.063 20.304C203.55 21.2415 204.705 22.5578 205.529 24.2528C206.362 25.9479 206.779 27.9318 206.779 30.2045C206.779 32.4583 206.362 34.428 205.529 36.1136C204.705 37.7992 203.55 39.1108 202.063 40.0483C200.586 40.9858 198.862 41.4545 196.893 41.4545ZM196.893 38.4432C198.389 38.4432 199.62 38.0597 200.586 37.2926C201.552 36.5256 202.267 35.517 202.731 34.267C203.195 33.017 203.427 31.6629 203.427 30.2045C203.427 28.7462 203.195 27.3873 202.731 26.1278C202.267 24.8684 201.552 23.8504 200.586 23.0739C199.62 22.2973 198.389 21.9091 196.893 21.9091C195.397 21.9091 194.165 22.2973 193.2 23.0739C192.234 23.8504 191.519 24.8684 191.055 26.1278C190.591 27.3873 190.359 28.7462 190.359 30.2045C190.359 31.6629 190.591 33.017 191.055 34.267C191.519 35.517 192.234 36.5256 193.2 37.2926C194.165 38.0597 195.397 38.4432 196.893 38.4432ZM211.496 41V19.1818H214.735V22.5909H215.019C215.474 21.4261 216.207 20.5218 217.221 19.8778C218.234 19.2244 219.451 18.8977 220.871 18.8977C222.311 18.8977 223.509 19.2244 224.465 19.8778C225.431 20.5218 226.184 21.4261 226.724 22.5909H226.951C227.51 21.464 228.348 20.5691 229.465 19.9062C230.582 19.2339 231.922 18.8977 233.485 18.8977C235.436 18.8977 237.031 19.5085 238.272 20.7301C239.512 21.9422 240.133 23.8314 240.133 26.3977V41H236.78V26.3977C236.78 24.7879 236.34 23.6373 235.459 22.946C234.579 22.2547 233.542 21.9091 232.349 21.9091C230.814 21.9091 229.626 22.3731 228.783 23.3011C227.94 24.2197 227.519 25.3845 227.519 26.7955V41H224.11V26.0568C224.11 24.8163 223.707 23.8172 222.903 23.0597C222.098 22.2926 221.061 21.9091 219.792 21.9091C218.921 21.9091 218.106 22.1411 217.349 22.6051C216.6 23.0691 215.994 23.7131 215.53 24.5369C215.076 25.3513 214.849 26.2936 214.849 27.3636V41H211.496ZM255.01 41.4545C252.907 41.4545 251.094 40.9905 249.569 40.0625C248.054 39.125 246.885 37.8182 246.061 36.142C245.246 34.4564 244.839 32.4962 244.839 30.2614C244.839 28.0265 245.246 26.0568 246.061 24.3523C246.885 22.6383 248.03 21.303 249.498 20.3466C250.976 19.3807 252.699 18.8977 254.669 18.8977C255.805 18.8977 256.927 19.0871 258.035 19.4659C259.143 19.8447 260.152 20.4602 261.061 21.3125C261.97 22.1553 262.694 23.2727 263.234 24.6648C263.774 26.0568 264.044 27.7708 264.044 29.8068V31.2273H247.226V28.3295H260.635C260.635 27.0985 260.388 26 259.896 25.0341C259.413 24.0682 258.722 23.3059 257.822 22.7472C256.932 22.1884 255.881 21.9091 254.669 21.9091C253.334 21.9091 252.178 22.2405 251.203 22.9034C250.237 23.5568 249.494 24.4091 248.973 25.4602C248.452 26.5114 248.191 27.6383 248.191 28.8409V30.7727C248.191 32.4205 248.476 33.8172 249.044 34.9631C249.621 36.0994 250.422 36.9659 251.444 37.5625C252.467 38.1496 253.655 38.4432 255.01 38.4432C255.89 38.4432 256.686 38.3201 257.396 38.0739C258.116 37.8182 258.736 37.4394 259.257 36.9375C259.778 36.4261 260.18 35.7917 260.464 35.0341L263.703 35.9432C263.362 37.0417 262.789 38.0076 261.984 38.8409C261.179 39.6648 260.185 40.3087 259.001 40.7727C257.817 41.2273 256.487 41.4545 255.01 41.4545Z" fill="#663019"/>
<path d="M185.583 21.6125L169.749 2.86251C169.552 2.6297 169.284 2.49902 169.005 2.49902C168.726 2.49902 168.459 2.6297 168.261 2.86251L152.428 21.6125C152.255 21.8516 152.164 22.1592 152.175 22.4738C152.185 22.7884 152.295 23.0869 152.483 23.3095C152.671 23.5321 152.923 23.6625 153.189 23.6747C153.454 23.6868 153.714 23.5798 153.916 23.375L169 5.51251L184.084 23.3875C184.286 23.5923 184.546 23.6993 184.811 23.6872C185.077 23.675 185.329 23.5446 185.517 23.322C185.705 23.0994 185.815 22.8009 185.825 22.4863C185.836 22.1717 185.745 21.8641 185.572 21.625L185.583 21.6125Z" fill="#2A5A29"/>
<path d="M179.556 40H174.278V27.5H163.722V40H158.444V22.5L156.333 25V40C156.333 40.6631 156.556 41.2989 156.952 41.7678C157.348 42.2366 157.885 42.5 158.444 42.5H165.833V30H172.167V42.5H179.556C180.115 42.5 180.652 42.2366 181.048 41.7678C181.444 41.2989 181.667 40.6631 181.667 40V24.7L179.556 22.2V40Z" fill="#2A5A29"/>
<path d="M46 13C41.8594 13 38.3242 14.3672 35.3945 17.1016C32.4648 19.8359 31 23.1354 31 27C31 30.8646 32.4648 34.1641 35.3945 36.8984C38.3242 39.6328 41.8594 41 46 41C50.1406 41 53.6758 39.6328 56.6055 36.8984C59.5352 34.1641 61 30.8646 61 27C61 23.1354 59.5352 19.8359 56.6055 17.1016C53.6758 14.3672 50.1406 13 46 13ZM37.3867 31.1016C38.207 33.0339 38.6172 34.7839 38.6172 36.3516C37.0547 35.3307 35.8145 33.9909 34.8965 32.332C33.9785 30.6732 33.5195 28.8958 33.5195 27C33.5195 23.2448 35.1016 20.2188 38.2656 17.9219C38.9688 18.4323 39.6133 19.0977 40.1992 19.918C40.7852 20.7383 41.0586 21.513 41.0195 22.2422C40.8633 23.3724 40.0625 24.4844 38.6172 25.5781C37.875 26.3073 37.377 27.1732 37.123 28.1758C36.8691 29.1784 36.957 30.1536 37.3867 31.1016ZM58.4805 27C58.4805 30.2083 57.2598 32.9518 54.8184 35.2305C52.377 37.5091 49.4375 38.6484 46 38.6484C44.2812 38.6484 42.6602 38.3385 41.1367 37.7188C41.332 35.349 40.8242 32.8698 39.6133 30.2812C39.1836 29.0417 39.4375 28.0573 40.375 27.3281C42.3281 25.5052 43.3633 23.8828 43.4805 22.4609C43.7148 20.4922 42.7188 18.5052 40.4922 16.5C42.0156 15.7344 43.8516 15.3516 46 15.3516C47.0156 15.3516 47.9727 15.4609 48.8711 15.6797L46.3516 18.0312L45.4727 18.8516L49.1055 22.2422L57.8945 23.3906C58.2852 24.6667 58.4805 25.8698 58.4805 27ZM50.3945 20.1094L48.9883 18.8516L51.5078 16.5C53.6563 17.4479 55.3555 18.9245 56.6055 20.9297L50.3945 20.1094ZM46.7617 25.0312L45.7656 26.3984C44.9844 27.5651 44.8867 28.7318 45.4727 29.8984L46 30.9922L46.8789 34.9297C46.9961 35.7682 47.543 36.3151 48.5195 36.5703C48.6758 36.6432 48.8711 36.6797 49.1055 36.6797C49.6914 36.6797 50.2383 36.4792 50.7461 36.0781L52.1523 34.8203L52.2695 34.6016C52.8555 32.5599 53.5195 31.1927 54.2617 30.5C55.3164 29.8073 55.6094 28.5677 55.1406 26.7812C54.8672 25.7969 54.1445 25.0859 52.9727 24.6484L49.9844 23.5H49.75C48.3828 23.5 47.3867 24.0104 46.7617 25.0312ZM47.875 27.7109L48.8711 26.2891C49.0273 25.9974 49.2812 25.8516 49.6328 25.8516L52.1523 26.6719C52.4648 26.8177 52.6211 26.9635 52.6211 27.1094C52.6992 27.3646 52.7383 27.8021 52.7383 28.4219C51.6836 29.151 50.7266 30.8099 49.8672 33.3984L49.2227 34L48.5195 30.2812L47.7578 28.8594C47.5234 28.5312 47.5625 28.1484 47.875 27.7109Z" fill="#2A5A29"/>
</svg>
